<svg version="1.1" xmlns="http://www.w3.org/2000/svg" x="0" y="0" width="363" height="356.707" viewBox="0 0 363 356.707" xml:space="preserve"><path fill="#E0E0E0" d="M316.025 63.893C283.716 26.133 235.74 2.167 182.141 2.167 84.846 2.167 5.963 81.043 5.963 178.343c0 55.15 25.354 104.357 65.025 136.664 30.322 24.689 68.999 39.514 111.152 39.514 97.302 0 176.176-78.874 176.176-176.176 0-43.707-15.943-83.661-42.291-114.452z"/><path fill="#FFF" d="M263.351 260.907c55.318-55.318 73.416-132.539 52.675-197.01-32.31-37.763-80.285-61.73-133.885-61.73-97.295 0-176.178 78.877-176.178 176.178 0 55.15 25.354 104.356 65.025 136.664 63.508 18.43 138.372-.109 192.363-54.102z"/><g fill="#3A3A39"><path d="M86.042 89.78s23.6-36.671 55.893-45.383c0 0 28.563-1.868 60.239 23.632 0 0-11.801 59.042-15.523 64.015 0 0-68.938 16.162-72.665 18.027.004-.001-21.736-30.459-27.944-60.291zM268.633 25.127v34.19s39.125 29.214 47.815 55.323l31.05 2.485c-.003.001-18.003-59.044-78.865-91.998zM238.816 187.987l63.353-8.08s14.903 26.105 14.903 64.021c0 0-27.943 37.926-52.17 47.252l-50.921-30.467 24.835-72.726zM89.146 219.688s27.944 39.153 49.062 55.938l-18.004 42.89s-37.889-4.351-56.511-19.894c0 0-21.744-26.104-21.744-64.018l47.197-14.916zM4.683 173.691h10.563s3.1-42.897 22.35-69.625V76.093c-.001.004-27.947 32.957-32.913 97.598zM171.869 354.293l.492-4.074s56.516-7.462 75.773-18.651l7.776 6.813c.002-.003-34.863 18.863-84.041 15.912zM123.304 11.457l17.391.619 15.851-8.198c-.007-.002-17.716 1.983-33.242 7.579z"/><path d="M200.561 69.571l-.372-1.827c2.082-.42 51.181-10.134 70.316-9.576l-.057 1.868c-18.946-.618-69.385 9.43-69.887 9.535zM302.617 181.382l-1.405-1.219c12.063-13.898 14.652-65.58 14.677-66.102l1.864.093c-.107 2.153-2.646 52.859-15.136 67.228zM344.427 247.173l-28.369-2.297.125-1.863 29.085 2.056zM239.299 190.271l-54.034-58.743 1.37-1.261 54.035 58.743zM248.346 333.839l-1.387-1.245c5.393-5.999 17.615-42.662 17.736-43.035l1.767.595c-.497 1.528-12.462 37.404-18.116 43.685zM135.759 277.267l-.255-1.84c.654-.098 66.123-9.074 78.873-15.756l.875 1.647c-13.043 6.833-76.789 15.585-79.493 15.949zM89.715 221.813l-1.794-.496c.711-2.561 17.454-62.842 25.556-72.831l1.452 1.171c-7.86 9.692-25.043 71.539-25.214 72.156zM173.586 351.844c-30.957-8.064-54.705-33.583-54.946-33.843l1.371-1.267c.239.258 23.627 25.382 54.046 33.301l-.471 1.809zM42.054 235.757c-29.755-29.176-28.939-63.074-28.923-63.404l1.864.061c-.016.34-.784 33.438 28.365 62.01l-1.306 1.333zM36.512 105.764l-1.12-1.487c.223-.162 22.282-16.545 53.932-15.341l-.077 1.864c-30.976-1.283-52.518 14.802-52.735 14.964zM141.216 45.36l-1.397-34.727 1.857-.075 1.397 34.728zM58.756 304.3l-1.244-1.386 6.735-6.047 1.245 1.387zM171.881 354.188l-.012.104c49.178 2.946 84.042-15.918 84.042-15.918l-.04-.036c-22.436 10.36-47.398 16.178-73.731 16.178-3.445.004-6.859-.13-10.259-.328z"/><path d="M141.68 10.579l.04.962 14.819-7.664s-17.709 1.985-33.242 7.58l16.578.59-.056-1.39 1.861-.078zM200.561 69.571c.045-.012.525-.105 1.357-.267.166-.809.256-1.273.256-1.273-.239-.193-.471-.348-.707-.537-.663.13-1.12.223-1.278.255l.372 1.822zM269.547 60.017c.3.008.61.004.901.016l.057-1.868a69.947 69.947 0 0 0-1.871-.024v1.176c-.001-.001.375.29.913.7zM317.724 114.74c.012-.271.022-.489.028-.586l-1.524-.077c.064.187.162.372.223.559l1.273.104zM302.617 181.382c.069-.08.131-.178.202-.254-.416-.802-.65-1.222-.65-1.222l-.842.104c-.04.05-.075.104-.112.148l1.402 1.224zM344.362 247.169l.065.004.841-2.105-.061-.005c-.287.702-.554 1.41-.845 2.106zM187.242 130.943l-.623-.683-1.371 1.265.639.699c.497-.117.764-.183.764-.183.179-.237.38-.633.591-1.098zM240.645 189.003l-1.028-1.121-.801.105-.443 1.294.905.984zM214.377 259.671a.774.774 0 0 1-.053.023l-.349 1.018 1.127.676c.045-.021.099-.045.142-.068l-.867-1.649zM137.617 275.128c-1.281.183-2.045.287-2.109.299l.255 1.841c.223-.031.89-.121 1.871-.259l.581-1.383c-.2-.154-.407-.34-.598-.498zM114.873 149.74c.021-.024.039-.057.061-.081l-1.452-1.172c-.093.117-.198.279-.295.416.498.732.81 1.168.81 1.168.154-.085.479-.197.876-.331zM88.297 219.96c-.198.698-.332 1.181-.381 1.357l1.794.496c.012-.039.109-.393.267-.961-.501-.691-.836-1.16-.836-1.16l-.844.268zM120.664 317.411a38.025 38.025 0 0 1-.655-.68l-1.371 1.266c.016.018.133.144.339.36.738.098 1.225.158 1.225.158l.462-1.104zM43.354 234.423c-.069-.07-.121-.135-.19-.203l-1.221.389c0 .364.037.711.04 1.075.024.024.044.054.069.077l1.302-1.338zM14.994 172.413l-1.864-.061c-.004.037-.007.542.012 1.338h1.863a25.112 25.112 0 0 1-.011-1.277zM86.281 90.774c.986.007 1.957-.017 2.963.023l.077-1.863c-.922-.037-1.803-.004-2.705-.012l-.578.857c.072.332.169.663.243.995zM36.466 105.706c.376-.55.744-1.099 1.127-1.638v-1.28a42.32 42.32 0 0 0-2.208 1.486l1.081 1.432zM143.078 45.307l-.037-.934c-.698.007-1.107.028-1.107.028-.255.069-.493.174-.744.247l.028.744 1.86-.085z"/><path d="M141.721 11.541l-.041-.962-1.86.076.057 1.391.812.028zM64.206 296.859l-1.115 1.002c.351.458.598.761.598.761.23.193.493.363.732.551l1.031-.926-1.246-1.388z"/></g><g fill="#2A2B2A"><path d="M347.345 117.114a176.36 176.36 0 0 0-31.319-53.221c5.303 16.484 8.028 33.802 8.282 51.374l23.037 1.847zM308.438 194.306c-10.188 23.951-25.191 46.705-45.087 66.602-6.33 6.33-12.972 12.131-19.824 17.482l20.753 12.418c-2.072 6.137-11.827 34.481-16.836 41.14-17.879 9.88-64.365 16.775-73.492 18.059-22-5.762-40.258-20.464-48.768-28.243-.881.021-1.766.076-2.646.085 7.793 7.329 26.629 23.157 49.684 29.586l-.335 2.757c3.399.197 6.815.331 10.26.331 26.335 0 51.297-5.816 73.732-16.177l-6.586-5.767c5.72-8.398 15.895-38.571 17.052-42.048 21.683-9.281 45.742-40.023 49.999-45.629l28.024 2.271c.29-.695.559-1.406.846-2.105l-28.158-1.988c-.129-20.583-4.596-37.604-8.618-48.774z"/></g></svg>